<svg xmlns="http://www.w3.org/2000/svg" viewBox="0 0 89.78 14.81"><path d="M25.76,7.53h2a1.39,1.39,0,0,0,1.39-1.39h0a1.39,1.39,0,0,1,1.39-1.39H35A1.39,1.39,0,0,0,36.4,3.36v-2A1.39,1.39,0,0,0,35,0H25.76a1.39,1.39,0,0,0-1.39,1.39V6.14A1.39,1.39,0,0,0,25.76,7.53Z"/><path d="M30.26,10.06h-4.5a1.39,1.39,0,0,0-1.39,1.39v2a1.39,1.39,0,0,0,1.39,1.39H35a1.39,1.39,0,0,0,1.39-1.39V8.67A1.39,1.39,0,0,0,35,7.28H33a1.39,1.39,0,0,0-1.39,1.39h0A1.39,1.39,0,0,1,30.26,10.06Z"/><path d="M68.28,10.06h-4.5a1.39,1.39,0,0,0-1.39,1.39v2a1.39,1.39,0,0,0,1.39,1.39H73a1.39,1.39,0,0,0,1.39-1.39V8.67A1.39,1.39,0,0,0,73,7.28h-2a1.39,1.39,0,0,0-1.39,1.39h0A1.39,1.39,0,0,1,68.28,10.06Z"/><path d="M63.78,7.53h2a1.4,1.4,0,0,0,1.4-1.39h0a1.39,1.39,0,0,1,1.39-1.39H73a1.39,1.39,0,0,0,1.39-1.39v-2A1.39,1.39,0,0,0,73,0H63.78a1.39,1.39,0,0,0-1.39,1.39V6.14A1.39,1.39,0,0,0,63.78,7.53Z"/><path d="M16.86,0h-2A1.39,1.39,0,0,0,13.5,1.39h0a1.39,1.39,0,0,1-1.39,1.39H10.64A1.39,1.39,0,0,1,9.25,1.39h0A1.39,1.39,0,0,0,7.86,0H1.39A1.39,1.39,0,0,0,0,1.39v12a1.39,1.39,0,0,0,1.39,1.39h2a1.39,1.39,0,0,0,1.39-1.39V8.92A1.39,1.39,0,0,1,6.14,7.53H7.61A1.39,1.39,0,0,1,9,8.92H9a1.39,1.39,0,0,0,1.39,1.39h2a1.39,1.39,0,0,0,1.39-1.39h0a1.39,1.39,0,0,1,1.39-1.39h1.47A1.39,1.39,0,0,1,18,8.92v4.5a1.39,1.39,0,0,0,1.39,1.39h2a1.39,1.39,0,0,0,1.39-1.39V8.67a1.39,1.39,0,0,0-1.39-1.39H19.64a1.39,1.39,0,0,1-1.39-1.39V1.39A1.39,1.39,0,0,0,16.86,0Z"/><path d="M80.53,1.39v4.5a1.39,1.39,0,0,1-1.39,1.39H77.43A1.4,1.4,0,0,0,76,8.67v4.75a1.4,1.4,0,0,0,1.4,1.39h2a1.39,1.39,0,0,0,1.39-1.39V8.92a1.4,1.4,0,0,1,1.4-1.39h1.46A1.39,1.39,0,0,1,85,8.92v4.5a1.4,1.4,0,0,0,1.4,1.39h2a1.39,1.39,0,0,0,1.39-1.39v-12A1.39,1.39,0,0,0,88.39,0H81.93A1.4,1.4,0,0,0,80.53,1.39Z"/><path d="M54.63,7.28H53.16a1.39,1.39,0,0,1-1.39-1.39h0A1.39,1.39,0,0,0,50.38,4.5h-2A1.39,1.39,0,0,0,47,5.89h0a1.39,1.39,0,0,1-1.39,1.39H44.16a1.39,1.39,0,0,1-1.39-1.39V1.39A1.39,1.39,0,0,0,41.38,0h-2A1.39,1.39,0,0,0,38,1.39V6.14a1.39,1.39,0,0,0,1.39,1.39h1.72a1.39,1.39,0,0,1,1.39,1.39v4.5a1.39,1.39,0,0,0,1.39,1.39h2a1.39,1.39,0,0,0,1.39-1.39h0A1.39,1.39,0,0,1,48.66,12h1.47a1.39,1.39,0,0,1,1.39,1.39h0a1.39,1.39,0,0,0,1.39,1.39h2a1.39,1.39,0,0,0,1.39-1.39V8.92a1.39,1.39,0,0,1,1.39-1.39h1.72a1.39,1.39,0,0,0,1.39-1.39V1.39A1.39,1.39,0,0,0,59.38,0h-2A1.39,1.39,0,0,0,56,1.39v4.5A1.39,1.39,0,0,1,54.63,7.28Z"/></svg>